<?xml version="1.0" encoding="UTF-8" standalone="no"?>
<!-- Created with Inkscape (http://www.inkscape.org/) -->

<svg
   width="102.64592mm"
   height="41.322922mm"
   viewBox="0 0 102.64592 41.322922"
   version="1.1"
   id="svg1"
   sodipodi:docname="logo.svg"
   inkscape:version="1.3.2 (091e20e, 2023-11-25, custom)"
   xmlns:inkscape="http://www.inkscape.org/namespaces/inkscape"
   xmlns:sodipodi="http://sodipodi.sourceforge.net/DTD/sodipodi-0.dtd"
   xmlns:xlink="http://www.w3.org/1999/xlink"
   xmlns="http://www.w3.org/2000/svg"
   xmlns:svg="http://www.w3.org/2000/svg">
  <sodipodi:namedview
     id="namedview1"
     pagecolor="#ffffff"
     bordercolor="#000000"
     borderopacity="0.25"
     inkscape:showpageshadow="2"
     inkscape:pageopacity="0.0"
     inkscape:pagecheckerboard="0"
     inkscape:deskcolor="#d1d1d1"
     inkscape:document-units="mm"
     inkscape:zoom="2.5247522"
     inkscape:cx="131.49805"
     inkscape:cy="107.93138"
     inkscape:window-width="1366"
     inkscape:window-height="697"
     inkscape:window-x="-8"
     inkscape:window-y="-8"
     inkscape:window-maximized="1"
     inkscape:current-layer="layer1" />
  <defs
     id="defs1">
    <linearGradient
       id="linearGradient4"
       inkscape:collect="always">
      <stop
         style="stop-color:#4b6fbe;stop-opacity:1;"
         offset="0"
         id="stop5" />
      <stop
         style="stop-color:#2d477d;stop-opacity:1;"
         offset="1"
         id="stop6" />
    </linearGradient>
    <linearGradient
       id="linearGradient2"
       inkscape:collect="always">
      <stop
         style="stop-color:#fbb94c;stop-opacity:1;"
         offset="0"
         id="stop3" />
      <stop
         style="stop-color:#ee9404;stop-opacity:1;"
         offset="1"
         id="stop4" />
    </linearGradient>
    <linearGradient
       id="linearGradient1"
       inkscape:collect="always">
      <stop
         style="stop-color:#ff344a;stop-opacity:1;"
         offset="0"
         id="stop1" />
      <stop
         style="stop-color:#a10012;stop-opacity:1;"
         offset="1"
         id="stop2" />
    </linearGradient>
    <radialGradient
       inkscape:collect="always"
       xlink:href="#linearGradient1"
       id="radialGradient2"
       cx="53.47546"
       cy="34.383232"
       fx="53.47546"
       fy="34.383232"
       r="20.661461"
       gradientUnits="userSpaceOnUse" />
    <radialGradient
       inkscape:collect="always"
       xlink:href="#linearGradient2"
       id="radialGradient4"
       cx="84.137024"
       cy="34.383232"
       fx="84.137024"
       fy="34.383232"
       r="20.661461"
       gradientUnits="userSpaceOnUse" />
    <radialGradient
       inkscape:collect="always"
       xlink:href="#linearGradient4"
       id="radialGradient6"
       cx="114.79846"
       cy="34.383232"
       fx="114.79846"
       fy="34.383232"
       r="20.661461"
       gradientUnits="userSpaceOnUse" />
    <filter
       style="color-interpolation-filters:sRGB"
       inkscape:label="Drop Shadow"
       id="filter161"
       x="-0.2640516"
       y="-0.26405161"
       width="1.5281032"
       height="1.5281032">
      <feFlood
         result="flood"
         in="SourceGraphic"
         flood-opacity="0.474510"
         flood-color="rgb(255,255,255)"
         id="feFlood160" />
      <feGaussianBlur
         result="blur"
         in="SourceGraphic"
         stdDeviation="2.000000"
         id="feGaussianBlur160" />
      <feOffset
         result="offset"
         in="blur"
         dx="-0.000000"
         dy="0.000000"
         id="feOffset160" />
      <feComposite
         result="comp1"
         operator="in"
         in="flood"
         in2="offset"
         id="feComposite160" />
      <feComposite
         result="comp2"
         operator="over"
         in="SourceGraphic"
         in2="comp1"
         id="feComposite161" />
    </filter>
    <filter
       style="color-interpolation-filters:sRGB"
       inkscape:label="Drop Shadow"
       id="filter163"
       x="-0.9051663"
       y="-0.78635109"
       width="2.8339014"
       height="2.5727022">
      <feFlood
         result="flood"
         in="SourceGraphic"
         flood-opacity="0.474510"
         flood-color="rgb(255,255,255)"
         id="feFlood161" />
      <feGaussianBlur
         result="blur"
         in="SourceGraphic"
         stdDeviation="2.000000"
         id="feGaussianBlur161" />
      <feOffset
         result="offset"
         in="blur"
         dx="-0.000000"
         dy="0.000000"
         id="feOffset161" />
      <feComposite
         result="comp1"
         operator="in"
         in="flood"
         in2="offset"
         id="feComposite162" />
      <feComposite
         result="comp2"
         operator="over"
         in="SourceGraphic"
         in2="comp1"
         id="feComposite163" />
    </filter>
    <filter
       style="color-interpolation-filters:sRGB"
       inkscape:label="Drop Shadow"
       id="filter165"
       x="-0.26405592"
       y="-0.26441889"
       width="1.5300113"
       height="1.5288378">
      <feFlood
         result="flood"
         in="SourceGraphic"
         flood-opacity="0.474510"
         flood-color="rgb(255,255,255)"
         id="feFlood163" />
      <feGaussianBlur
         result="blur"
         in="SourceGraphic"
         stdDeviation="2.000000"
         id="feGaussianBlur163" />
      <feOffset
         result="offset"
         in="blur"
         dx="-0.000000"
         dy="0.000000"
         id="feOffset163" />
      <feComposite
         result="comp1"
         operator="in"
         in="flood"
         in2="offset"
         id="feComposite164" />
      <feComposite
         result="comp2"
         operator="over"
         in="SourceGraphic"
         in2="comp1"
         id="feComposite165" />
    </filter>
    <filter
       style="color-interpolation-filters:sRGB"
       inkscape:label="Drop Shadow"
       id="filter167"
       x="-0.25017567"
       y="-1.082228"
       width="1.5003551"
       height="3.164467">
      <feFlood
         result="flood"
         in="SourceGraphic"
         flood-opacity="0.474510"
         flood-color="rgb(255,255,255)"
         id="feFlood165" />
      <feGaussianBlur
         result="blur"
         in="SourceGraphic"
         stdDeviation="2.000000"
         id="feGaussianBlur165" />
      <feOffset
         result="offset"
         in="blur"
         dx="-0.000000"
         dy="0.000000"
         id="feOffset165" />
      <feComposite
         result="comp1"
         operator="in"
         in="flood"
         in2="offset"
         id="feComposite166" />
      <feComposite
         result="comp2"
         operator="over"
         in="SourceGraphic"
         in2="comp1"
         id="feComposite167" />
    </filter>
    <filter
       style="color-interpolation-filters:sRGB"
       inkscape:label="Drop Shadow"
       id="filter169"
       x="-0.26364105"
       y="-0.26403302"
       width="1.5274238"
       height="1.5280745">
      <feFlood
         result="flood"
         in="SourceGraphic"
         flood-opacity="0.474510"
         flood-color="rgb(255,255,255)"
         id="feFlood167" />
      <feGaussianBlur
         result="blur"
         in="SourceGraphic"
         stdDeviation="2.000000"
         id="feGaussianBlur167" />
      <feOffset
         result="offset"
         in="blur"
         dx="-0.000000"
         dy="0.000000"
         id="feOffset167" />
      <feComposite
         result="comp1"
         operator="in"
         in="flood"
         in2="offset"
         id="feComposite168" />
      <feComposite
         result="comp2"
         operator="over"
         in="SourceGraphic"
         in2="comp1"
         id="feComposite169" />
    </filter>
  </defs>
  <g
     inkscape:label="Ebene 1"
     inkscape:groupmode="layer"
     id="layer1"
     transform="translate(-32.814,-13.721772)">
    <circle
       style="fill:url(#radialGradient2);fill-opacity:1;stroke:#3f3302;stroke-width:1.32292;stroke-opacity:0"
       id="path1"
       cx="53.47546"
       cy="34.383232"
       r="20" />
    <circle
       style="fill:url(#radialGradient6);fill-opacity:1;stroke:#3f3302;stroke-width:1.32292;stroke-opacity:0"
       id="path1-7-1"
       cx="114.79846"
       cy="34.383232"
       r="20" />
    <circle
       style="fill:url(#radialGradient4);fill-opacity:1;stroke:#3f3302;stroke-width:1.32292;stroke-opacity:0"
       id="path1-7"
       cx="84.137024"
       cy="34.383232"
       r="20" />
    <path
       d="m 51.378202,36.48049 q -3.066336,0 -3.615963,0.520698 -0.520698,0.520699 -0.520698,3.615963 h 16.575572 v 4.107733 H 43.133807 q 0,0 0,-0.636409 0,-0.665337 0,-1.446385 0,-0.694265 0,-1.301747 0,-0.607482 0,-0.75212 0,-6.190528 1.041397,-7.202997 1.070325,-1.041398 7.202998,-1.041398 h 4.136661 q 3.095264,0 3.615962,-0.260349 0.549627,-0.260349 0.549627,-1.851373 0,-1.533168 -0.549627,-1.793517 Q 58.610127,28.17824 55.514863,28.17824 H 43.133807 v -4.136661 h 16.546645 q 2.169577,0 3.153119,0.781047 0.983542,0.752121 0.983542,5.40948 0,4.65736 -1.070325,5.467336 -1.070325,0.781048 -7.231925,0.781048 h -4.136661 z"
       id="text1"
       style="font-size:28.9277px;font-family:Silicon;-inkscape-font-specification:Silicon;text-align:center;text-anchor:middle;fill:#ffffff;stroke:#3f3302;stroke-width:1.32292;stroke-opacity:0;filter:url(#filter161)"
       aria-label="2" />
    <path
       id="text1-7"
       style="font-style:normal;font-variant:normal;font-weight:normal;font-stretch:normal;font-size:28.9277px;font-family:Silicon;-inkscape-font-specification:Silicon;text-align:center;text-anchor:middle;fill:#ffffff;fill-opacity:1;stroke:#3f3302;stroke-width:1.32292;stroke-opacity:0;filter:url(#filter165)"
       d="m 73.795496,24.070365 v 4.136699 h 12.381156 c 1.928509,0 3.104711,0.04827 3.528984,0.144694 0.424271,0.09642 0.636136,0.433789 0.636136,1.012341 v 0.405143 0.463021 0.346749 c 0,0.09643 0.0097,0.192962 0.02894,0.289388 v 0.260449 0.231511 c 0,0.520697 -0.153942,0.819445 -0.462504,0.896586 -0.289277,0.07714 -1.041748,0.106097 -2.25671,0.08682 h -0.694014 -0.780831 -8.273397 v 4.136699 h 8.273397 c 1.928509,0 3.104711,0.04827 3.528984,0.144694 0.424271,0.09643 0.64579,0.433789 0.665075,1.012341 v 0.202572 0.202571 c -0.01928,0.07714 -0.02894,0.15437 -0.02894,0.231511 v 0.260449 0.288871 0.23151 c 0.0056,0.23718 -7.34e-4,0.441845 -0.01654,0.621151 0.01879,-0.01319 0.0374,-0.02647 0.05684,-0.03876 0.116524,-0.07659 0.230084,-0.15851 0.351917,-0.22686 0.186074,-0.0941 0.375794,-0.176591 0.581359,-0.218591 0.146904,-0.03675 0.292397,-0.08201 0.443384,-0.09974 0.173184,-0.02586 0.343526,-0.06876 0.517281,-0.09147 0.284888,-0.0487 0.563711,-0.121326 0.84336,-0.193786 0.322004,-0.07831 0.670673,-0.174022 1.012858,-0.178801 0.101934,-0.0014 0.203344,0.0057 0.30334,0.02325 -0.08385,-0.851558 -0.291039,-1.536858 -0.622184,-2.055172 -0.424271,-0.713548 -0.887133,-1.234332 -1.388546,-1.562179 -0.520697,-0.308561 -1.002865,-0.491465 -1.446423,-0.54932 l -0.636654,-0.08682 0.636654,-0.08682 c 0.443558,-0.05786 0.925726,-0.241276 1.446423,-0.549837 0.501413,-0.327847 0.964275,-0.838977 1.388546,-1.53324 0.443558,-0.694263 0.665076,-1.687561 0.665076,-2.979663 0,-2.584203 -0.375977,-4.088115 -1.128097,-4.512386 -0.752118,-0.443558 -1.773862,-0.665593 -3.065962,-0.665593 h -0.02894 z m 15.543237,16.514238 c -0.423621,0.03077 -1.011837,0.04324 -1.802474,0.03256 H 86.899605 86.176652 73.795496 v 4.10776 h 14.264245 c -0.03796,-0.181356 -0.05851,-0.38361 -0.05684,-0.607715 2.99e-4,-0.04273 9.59e-4,-0.08543 0.0015,-0.128158 0.0017,-0.117691 0.0037,-0.235442 0.01085,-0.35295 0.01088,-0.173208 0.0262,-0.346641 0.05581,-0.517798 0.03536,-0.197238 0.07244,-0.395198 0.132808,-0.586527 0.07212,-0.200284 0.161771,-0.391359 0.250631,-0.584461 0.09003,-0.193453 0.19143,-0.380143 0.293522,-0.567407 0.09621,-0.156836 0.200162,-0.306473 0.313159,-0.451652 0.08981,-0.117213 0.187117,-0.227604 0.277503,-0.343648 z" />
    <path
       id="text1-7-4"
       style="font-style:normal;font-variant:normal;font-weight:normal;font-stretch:normal;font-size:28.9277px;font-family:Silicon;-inkscape-font-specification:Silicon;text-align:center;text-anchor:middle;fill:#ffffff;fill-opacity:1;stroke:#3f3302;stroke-width:1.32292;stroke-opacity:0;filter:url(#filter169)"
       d="m 104.45719,24.04091 v 0.665592 1.446424 1.301729 0.751892 c 0,4.204139 0.26979,6.643958 0.80977,7.318933 0.53998,0.674975 2.41073,0.993034 5.61206,0.954464 h 0.86765 0.95446 4.1367 0.72347 0.63614 c 1.38852,-0.03857 2.19892,0.029 2.43034,0.202571 0.25071,0.154281 0.37569,0.771088 0.37569,1.85105 0,0.925682 -0.0772,1.514048 -0.23151,1.76475 -0.135,0.231422 -0.5689,0.347266 -1.30173,0.347266 h -0.6072 -0.75241 c -0.19285,-0.01928 -0.39506,-0.02894 -0.6072,-0.02894 h -0.66559 -3.39618 v 0.04082 0.08992 c 0,0.07064 -0.0101,0.131535 -0.0269,0.182934 -2.9e-4,0.0019 -2.2e-4,0.0038 -5.1e-4,0.0057 -0.0137,0.08997 -0.0334,0.179991 -0.0341,0.271301 -0.006,0.121848 -0.0127,0.243988 -0.0336,0.364319 -0.0157,0.08847 -0.0276,0.176173 -0.0326,0.266133 -0.0139,0.102068 -0.0334,0.203814 -0.0723,0.299724 -0.0325,0.09183 -0.049,0.189737 -0.0692,0.284737 -0.0232,0.10997 -0.0503,0.219778 -0.0853,0.326595 -0.0334,0.100331 -0.0639,0.202505 -0.1204,0.293005 -0.044,0.08085 -0.0809,0.165107 -0.11731,0.249597 -0.0453,0.111609 -0.0874,0.224364 -0.14883,0.328662 -0.0585,0.106802 -0.11581,0.214206 -0.17621,0.319878 -0.0588,0.09893 -0.1029,0.204964 -0.1633,0.302824 -0.0539,0.0819 -0.1132,0.159608 -0.1695,0.239778 -0.0505,0.07657 -0.0768,0.167343 -0.13074,0.241846 h 8.94261 0.69453 0.63613 0.54984 0.46251 c 0.96425,0.01929 1.514,-0.183442 1.64899,-0.607715 0.135,-0.443558 0.19292,-1.561843 0.17363,-3.355351 -0.0193,-0.308558 -0.0289,-0.646441 -0.0289,-1.012858 V 38.533565 37.60804 c 0,-0.289272 0.01,-0.568717 0.0289,-0.838708 v -0.752409 -0.665076 c 0.0193,-1.562086 -0.29877,-2.458853 -0.95446,-2.690275 -0.63641,-0.250702 -2.33339,-0.356897 -5.09116,-0.318327 h -1.09968 -1.18597 -4.1367 -0.6072 -0.49196 c -1.52352,0.03857 -2.41063,-0.106235 -2.66133,-0.434082 -0.25071,-0.327843 -0.37621,-1.542669 -0.37621,-3.644738 v -0.02894 -0.05788 h 16.57574 V 24.04091 Z m 0,20.423043 v 0.260449 h 0.27078 c -0.0291,-0.02487 -0.0588,-0.04903 -0.0873,-0.07441 -0.0654,-0.05874 -0.12589,-0.121112 -0.18345,-0.186035 z" />
    <path
       d="m 90.607068,42.712913 q 0,-1.57339 0.1905,-1.82739 0.197556,-0.254001 1.375834,-0.239889 0.09878,0 0.211667,0 0.112889,0 0.232834,0 h 1.001889 q 0.141111,0 0.268111,0 0.127001,0 0.23989,0 1.030111,-0.01411 1.277056,0.09878 0.246944,0.112889 0.246944,0.825501 0,0.105833 -0.0071,0.232833 0,0.119945 0,0.261056 0,0.141111 -0.0071,0.303389 0,0.162278 0,0.345723 0,0.183444 0,0.345722 0.0071,0.155222 0.0071,0.296334 0,0.141111 0,0.268111 0.0071,0.119944 0.0071,0.225778 0,0.691445 -0.232833,0.790223 -0.232833,0.09878 -1.185334,0.08467 -0.134056,0 -0.289278,0 -0.155222,0 -0.324556,0 h -1.016 q -0.141112,0 -0.275167,0 -0.127,0 -0.239889,0 -1.107723,0.01411 -1.298223,-0.225778 -0.183445,-0.239889 -0.183445,-1.785056 z m 4.03578,0 q 0,-0.08467 0,-0.162278 0,-0.07761 0.0071,-0.148167 0,-0.0635 0,-0.127 0,-0.0635 0,-0.112889 0,-0.381 -0.162278,-0.4445 -0.155222,-0.0635 -0.8255,-0.0635 -0.0071,0 -0.02117,0 -0.0071,0 -0.01411,0 h -1.00189 q -0.762,0 -0.889,0.134055 -0.127,0.134056 -0.127,0.924279 0,0.0071 0,0.01411 0,0 0,0.0071 0,0.762001 0.09172,0.881945 0.09172,0.119945 0.656167,0.105834 0.05644,0 0.119944,0 0.07056,0 0.141112,0 h 1.001889 q 0.08467,0 0.155223,0 0.07761,0 0.141111,0 0.564445,0.0071 0.649111,-0.07761 0.08467,-0.08467 0.07761,-0.642056 0,-0.0635 0,-0.134056 0,-0.07761 0,-0.155222 z m 6.604002,1.008945 q 0,0.783167 -0.22578,0.896056 -0.21872,0.112889 -1.545168,0.105833 -0.162278,0 -0.352778,0 -0.1905,0 -0.402167,0 -0.148167,0 -0.289278,0 -0.141111,0 -0.268111,0 -1.474612,0.0071 -1.721557,-0.232833 -0.239889,-0.246945 -0.239889,-1.778001 0,-1.516946 0.310445,-1.770946 0.3175,-0.254 2.20839,-0.254 0.02117,0 0.169334,0 0.155222,0 0.338666,0 0.190501,0 0.345723,0 0.162278,0 0.162278,0 v 1.016001 h -1.016001 q -1.135945,0 -1.326445,0.127 -0.1905,0.119944 -0.1905,0.867834 0,0.0071 0,0.01411 0,0 0,0 0,0.0071 0,0.01411 0,0 0,0 0,0.762 0.141111,0.889 0.141111,0.119945 0.980723,0.105834 0.09172,0 0.1905,0 0.09878,0 0.204611,0 0.112889,0 0.218722,0 0.105834,0 0.197556,0 0.846667,0.0071 0.980725,-0.07761 0.13405,-0.09172 0.11994,-0.663223 0,-0.0635 0,-0.127 0,-0.07056 0,-0.141111 0,-0.254001 0,-0.585612 0,-0.331611 0,-0.677334 0,-0.663222 0,-1.213556 0,-0.557389 0,-0.557389 h 1.00895 v 4.042836 z m 3.06916,1.001889 q -0.22578,0 -0.43039,0 -0.20461,0 -0.381,0 -1.27705,0.01411 -1.49578,-0.09878 -0.21166,-0.119944 -0.21166,-0.903111 v -2.01789 q 0,-0.754945 0.31044,-0.881945 0.3175,-0.134056 2.20839,-0.134056 1.89795,0 2.20839,0.134056 0.3175,0.134055 0.3175,0.881945 v 1.509889 q 0,0 -0.3175,0 -0.31044,0 -2.20839,0 -0.0212,0 -0.17639,0 -0.14816,0 -0.32455,0 -0.1905,0 -0.35278,0 -0.15522,0 -0.15522,0 v -1.008945 h 2.52589 q 0,0 0,-0.02822 0,-0.03528 0,-0.225778 0,-0.183444 -0.1905,-0.211667 -0.1905,-0.03528 -1.32645,-0.03528 -1.13594,0 -1.32644,0.127 -0.1905,0.127 -0.1905,0.881945 0,0.783167 0.13405,0.903111 0.14111,0.119945 0.94545,0.112889 0.0917,-0.0071 0.20461,-0.0071 0.11289,0 0.23283,0 h 2.52589 v 1.001889 q 0,0 -0.508,0 -0.508,0 -1.12183,0 -0.23284,0 -0.46567,0 -0.23283,0 -0.43039,0 z m 4.07811,-3.019779 v 3.019779 h -1.00189 v -4.03578 q 0,0 0.38806,0 0.39511,0 0.86783,0 0.45156,0 0.83256,0 0.38805,0 0.42333,0 0.007,0 0.0141,0 0.0141,0 0.0212,0 1.86972,0 2.18722,0.1905 0.32456,0.1905 0.31045,1.326445 0,0 -0.0776,0 -0.0705,0 -0.18344,0 -0.0564,0 -0.11994,0 -0.0635,0 -0.11995,0 -0.1905,0 -0.35278,0 -0.15522,0 -0.15522,0 0,-0.05644 0,-0.105833 0,-0.04939 0,-0.08467 0,-0.225778 -0.23283,-0.268111 -0.22578,-0.04233 -1.29117,-0.04233 -0.0635,0 -0.28222,0 -0.21167,0 -0.46567,0 -0.28222,0 -0.52211,0 -0.23989,0 -0.23989,0 z"
       id="text6"
       style="font-size:7.05556px;font-family:Silicon;-inkscape-font-specification:Silicon;text-align:center;text-anchor:middle;fill:#ffffff;stroke:#3f3302;stroke-width:1.32292;stroke-opacity:0;filter:url(#filter167)"
       aria-label="oder" />
    <path
       d="m 67.108558,38.729608 h 4.795578 l -2.601739,6.94532 H 65.70847 Z"
       id="text160"
       style="font-size:22.5778px;font-family:'Star Jedi';-inkscape-font-specification:'Star Jedi';text-align:center;text-anchor:middle;fill:#ffffff;stroke:#3f3302;stroke-width:1.32292;stroke-opacity:0;filter:url(#filter163)"
       aria-label="," />
  </g>
</svg>
